<svg width="1240" height="354" viewBox="0 0 1240 354" fill="none" xmlns="http://www.w3.org/2000/svg">
<g style="mix-blend-mode:overlay" opacity="0.1">
<path fill-rule="evenodd" clip-rule="evenodd" d="M14.3423 -0.178747L-11.3288 -15L-37 -0.178747V29.4638L-11.3288 44.285L14.3423 29.4638V-0.178747ZM229.459 -0.178747L203.788 -15L178.117 -0.178747V29.4638L203.788 44.285L229.459 29.4638V-0.178747ZM311.291 -15L336.963 -0.178747V29.4638L311.291 44.285L285.62 29.4638V-0.178747L311.291 -15ZM256.335 46.4588L230.664 31.6376L204.993 46.4588V76.1013L230.664 90.9226L256.335 76.1013V46.4588ZM364.036 46.4588L338.365 31.6376L312.694 46.4588V76.1013L338.365 90.9226L364.036 76.1013V46.4588ZM392.117 31.6376L417.788 46.4588V76.1013L392.117 90.9226L366.446 76.1013V46.4588L392.117 31.6376ZM310.087 46.4588L284.416 31.6376L258.744 46.4588V76.1013L284.416 90.9226L310.087 76.1013V46.4588ZM338.365 124.715L364.036 139.536V169.179L338.365 184L312.694 169.179V139.536L338.365 124.715ZM256.335 139.536L230.664 124.715L204.993 139.536V169.179L230.664 184L256.335 169.179V139.536ZM392.117 124.715L417.788 139.536V169.179L392.117 184L366.446 169.179V139.536L392.117 124.715ZM310.087 139.536L284.416 124.715L258.744 139.536V169.179L284.416 184L310.087 169.179V139.536ZM365.043 -15L390.714 -0.178747V29.4638L365.043 44.285L339.372 29.4638V-0.178747L365.043 -15ZM336.963 92.8985L311.291 78.0773L285.62 92.8985V122.541L311.291 137.362L336.963 122.541V92.8985ZM257.54 -15L283.211 -0.178747V29.4638L257.54 44.285L231.869 29.4638V-0.178747L257.54 -15ZM229.459 92.8985L203.788 78.0773L178.117 92.8985V122.541L203.788 137.362L229.459 122.541V92.8985ZM365.043 78.0773L390.714 92.8985V122.541L365.043 137.362L339.372 122.541V92.8985L365.043 78.0773ZM283.211 92.8985L257.54 78.0773L231.869 92.8985V122.541L257.54 137.362L283.211 122.541V92.8985ZM123.248 31.6376L148.919 46.4588V76.1013L123.248 90.9226L97.5771 76.1013V46.4588L123.248 31.6376ZM41.2184 46.4588L15.5472 31.6376L-10.124 46.4588V76.1013L15.5472 90.9226L41.2184 76.1013V46.4588ZM177 31.6376L202.671 46.4588V76.1013L177 90.9226L151.329 76.1013V46.4588L177 31.6376ZM94.97 46.4588L69.2988 31.6376L43.6276 46.4588V76.1013L69.2988 90.9226L94.97 76.1013V46.4588ZM123.248 124.715L148.919 139.536V169.179L123.248 184L97.5771 169.179V139.536L123.248 124.715ZM41.2184 139.536L15.5472 124.715L-10.124 139.536V169.179L15.5472 184L41.2184 169.179V139.536ZM177 124.715L202.671 139.536V169.179L177 184L151.329 169.179V139.536L177 124.715ZM94.97 139.536L69.2988 124.715L43.6276 139.536V169.179L69.2988 184L94.97 169.179V139.536ZM96.1747 -15L121.846 -0.178747V29.4638L96.1747 44.285L70.5036 29.4638V-0.178747L96.1747 -15ZM149.927 -15L175.598 -0.178747V29.4638L149.927 44.285L124.255 29.4638V-0.178747L149.927 -15ZM121.846 92.8985L96.1747 78.0773L70.5036 92.8985V122.541L96.1747 137.362L121.846 122.541V92.8985ZM42.423 -15L68.0942 -0.178747V29.4638L42.423 44.285L16.7518 29.4638V-0.178747L42.423 -15ZM14.3423 92.8985L-11.3288 78.0773L-37 92.8985V122.541L-11.3288 137.362L14.3423 122.541V92.8985ZM149.927 78.0773L175.598 92.8985V122.541L149.927 137.362L124.255 122.541V92.8985L149.927 78.0773ZM68.0942 92.8985L42.423 78.0773L16.7518 92.8985V122.541L42.423 137.362L68.0942 122.541V92.8985Z" fill="white"/>
</g>
<g style="mix-blend-mode:overlay" opacity="0.1">
<path fill-rule="evenodd" clip-rule="evenodd" d="M444.4 -0.178747L418.729 -15L393.058 -0.178747V29.4638L418.729 44.285L444.4 29.4638V-0.178747ZM659.517 -0.178747L633.846 -15L608.175 -0.178747V29.4638L633.846 44.285L659.517 29.4638V-0.178747ZM741.35 -15L767.021 -0.178747V29.4638L741.35 44.285L715.678 29.4638V-0.178747L741.35 -15ZM686.393 46.4588L660.722 31.6376L635.051 46.4588V76.1013L660.722 90.9226L686.393 76.1013V46.4588ZM794.094 46.4588L768.423 31.6376L742.752 46.4588V76.1013L768.423 90.9226L794.094 76.1013V46.4588ZM822.175 31.6376L847.846 46.4588V76.1013L822.175 90.9226L796.504 76.1013V46.4588L822.175 31.6376ZM740.145 46.4588L714.474 31.6376L688.802 46.4588V76.1013L714.474 90.9226L740.145 76.1013V46.4588ZM768.423 124.715L794.094 139.536V169.179L768.423 184L742.752 169.179V139.536L768.423 124.715ZM686.393 139.536L660.722 124.715L635.051 139.536V169.179L660.722 184L686.393 169.179V139.536ZM822.175 124.715L847.846 139.536V169.179L822.175 184L796.504 169.179V139.536L822.175 124.715ZM740.145 139.536L714.474 124.715L688.802 139.536V169.179L714.474 184L740.145 169.179V139.536ZM795.101 -15L820.773 -0.178747V29.4638L795.101 44.285L769.43 29.4638V-0.178747L795.101 -15ZM767.021 92.8985L741.35 78.0773L715.678 92.8985V122.541L741.35 137.362L767.021 122.541V92.8985ZM687.598 -15L713.269 -0.178747V29.4638L687.598 44.285L661.927 29.4638V-0.178747L687.598 -15ZM659.517 92.8985L633.846 78.0773L608.175 92.8985V122.541L633.846 137.362L659.517 122.541V92.8985ZM795.101 78.0773L820.773 92.8985V122.541L795.101 137.362L769.43 122.541V92.8985L795.101 78.0773ZM713.269 92.8985L687.598 78.0773L661.927 92.8985V122.541L687.598 137.362L713.269 122.541V92.8985ZM553.306 31.6376L578.978 46.4588V76.1013L553.306 90.9226L527.635 76.1013V46.4588L553.306 31.6376ZM471.276 46.4588L445.605 31.6376L419.934 46.4588V76.1013L445.605 90.9226L471.276 76.1013V46.4588ZM607.058 31.6376L632.729 46.4588V76.1013L607.058 90.9226L581.387 76.1013V46.4588L607.058 31.6376ZM525.028 46.4588L499.357 31.6376L473.686 46.4588V76.1013L499.357 90.9226L525.028 76.1013V46.4588ZM553.306 124.715L578.978 139.536V169.179L553.306 184L527.635 169.179V139.536L553.306 124.715ZM471.276 139.536L445.605 124.715L419.934 139.536V169.179L445.605 184L471.276 169.179V139.536ZM607.058 124.715L632.729 139.536V169.179L607.058 184L581.387 169.179V139.536L607.058 124.715ZM525.028 139.536L499.357 124.715L473.686 139.536V169.179L499.357 184L525.028 169.179V139.536ZM526.233 -15L551.904 -0.178747V29.4638L526.233 44.285L500.562 29.4638V-0.178747L526.233 -15ZM579.985 -15L605.656 -0.178747V29.4638L579.985 44.285L554.313 29.4638V-0.178747L579.985 -15ZM551.904 92.8985L526.233 78.0773L500.562 92.8985V122.541L526.233 137.362L551.904 122.541V92.8985ZM472.481 -15L498.152 -0.178747V29.4638L472.481 44.285L446.81 29.4638V-0.178747L472.481 -15ZM444.4 92.8985L418.729 78.0773L393.058 92.8985V122.541L418.729 137.362L444.4 122.541V92.8985ZM579.985 78.0773L605.656 92.8985V122.541L579.985 137.362L554.313 122.541V92.8985L579.985 78.0773ZM498.152 92.8985L472.481 78.0773L446.81 92.8985V122.541L472.481 137.362L498.152 122.541V92.8985Z" fill="white"/>
</g>
<g style="mix-blend-mode:overlay" opacity="0.1">
<path fill-rule="evenodd" clip-rule="evenodd" d="M874.459 -0.178747L848.787 -15L823.116 -0.178747V29.4638L848.787 44.285L874.459 29.4638V-0.178747ZM1089.58 -0.178747L1063.9 -15L1038.23 -0.178747V29.4638L1063.9 44.285L1089.58 29.4638V-0.178747ZM1171.41 -15L1197.08 -0.178747V29.4638L1171.41 44.285L1145.74 29.4638V-0.178747L1171.41 -15ZM1116.45 46.4588L1090.78 31.6376L1065.11 46.4588V76.1013L1090.78 90.9226L1116.45 76.1013V46.4588ZM1224.15 46.4588L1198.48 31.6376L1172.81 46.4588V76.1013L1198.48 90.9226L1224.15 76.1013V46.4588ZM1252.23 31.6376L1277.9 46.4588V76.1013L1252.23 90.9226L1226.56 76.1013V46.4588L1252.23 31.6376ZM1170.2 46.4588L1144.53 31.6376L1118.86 46.4588V76.1013L1144.53 90.9226L1170.2 76.1013V46.4588ZM1198.48 124.715L1224.15 139.536V169.179L1198.48 184L1172.81 169.179V139.536L1198.48 124.715ZM1116.45 139.536L1090.78 124.715L1065.11 139.536V169.179L1090.78 184L1116.45 169.179V139.536ZM1252.23 124.715L1277.9 139.536V169.179L1252.23 184L1226.56 169.179V139.536L1252.23 124.715ZM1170.2 139.536L1144.53 124.715L1118.86 139.536V169.179L1144.53 184L1170.2 169.179V139.536ZM1225.16 -15L1250.83 -0.178747V29.4638L1225.16 44.285L1199.49 29.4638V-0.178747L1225.16 -15ZM1197.08 92.8985L1171.41 78.0773L1145.74 92.8985V122.541L1171.41 137.362L1197.08 122.541V92.8985ZM1117.66 -15L1143.33 -0.178747V29.4638L1117.66 44.285L1091.98 29.4638V-0.178747L1117.66 -15ZM1089.58 92.8985L1063.9 78.0773L1038.23 92.8985V122.541L1063.9 137.362L1089.58 122.541V92.8985ZM1225.16 78.0773L1250.83 92.8985V122.541L1225.16 137.362L1199.49 122.541V92.8985L1225.16 78.0773ZM1143.33 92.8985L1117.66 78.0773L1091.98 92.8985V122.541L1117.66 137.362L1143.33 122.541V92.8985ZM983.364 31.6376L1009.04 46.4588V76.1013L983.364 90.9226L957.693 76.1013V46.4588L983.364 31.6376ZM901.335 46.4588L875.663 31.6376L849.992 46.4588V76.1013L875.663 90.9226L901.335 76.1013V46.4588ZM1037.12 31.6376L1062.79 46.4588V76.1013L1037.12 90.9226L1011.45 76.1013V46.4588L1037.12 31.6376ZM955.086 46.4588L929.415 31.6376L903.744 46.4588V76.1013L929.415 90.9226L955.086 76.1013V46.4588ZM983.364 124.715L1009.04 139.536V169.179L983.364 184L957.693 169.179V139.536L983.364 124.715ZM901.335 139.536L875.663 124.715L849.992 139.536V169.179L875.663 184L901.335 169.179V139.536ZM1037.12 124.715L1062.79 139.536V169.179L1037.12 184L1011.45 169.179V139.536L1037.12 124.715ZM955.086 139.536L929.415 124.715L903.744 139.536V169.179L929.415 184L955.086 169.179V139.536ZM956.291 -15L981.962 -0.178747V29.4638L956.291 44.285L930.62 29.4638V-0.178747L956.291 -15ZM1010.04 -15L1035.71 -0.178747V29.4638L1010.04 44.285L984.372 29.4638V-0.178747L1010.04 -15ZM981.962 92.8985L956.291 78.0773L930.62 92.8985V122.541L956.291 137.362L981.962 122.541V92.8985ZM902.539 -15L928.21 -0.178747V29.4638L902.539 44.285L876.868 29.4638V-0.178747L902.539 -15ZM874.459 92.8985L848.787 78.0773L823.116 92.8985V122.541L848.787 137.362L874.459 122.541V92.8985ZM1010.04 78.0773L1035.71 92.8985V122.541L1010.04 137.362L984.372 122.541V92.8985L1010.04 78.0773ZM928.21 92.8985L902.539 78.0773L876.868 92.8985V122.541L902.539 137.362L928.21 122.541V92.8985Z" fill="white"/>
</g>
<g style="mix-blend-mode:overlay" opacity="0.1">
<path fill-rule="evenodd" clip-rule="evenodd" d="M14.4004 185.821L-11.2707 171L-36.9419 185.821V215.464L-11.2707 230.285L14.4004 215.464V185.821ZM229.517 185.821L203.846 171L178.175 185.821V215.464L203.846 230.285L229.517 215.464V185.821ZM311.35 171L337.021 185.821V215.464L311.35 230.285L285.678 215.464V185.821L311.35 171ZM256.393 232.459L230.722 217.638L205.051 232.459V262.101L230.722 276.923L256.393 262.101V232.459ZM364.094 232.459L338.423 217.638L312.752 232.459V262.101L338.423 276.923L364.094 262.101V232.459ZM392.175 217.638L417.846 232.459V262.101L392.175 276.923L366.504 262.101V232.459L392.175 217.638ZM310.145 232.459L284.474 217.638L258.802 232.459V262.101L284.474 276.923L310.145 262.101V232.459ZM338.423 310.715L364.094 325.536V355.179L338.423 370L312.752 355.179V325.536L338.423 310.715ZM256.393 325.536L230.722 310.715L205.051 325.536V355.179L230.722 370L256.393 355.179V325.536ZM392.175 310.715L417.846 325.536V355.179L392.175 370L366.504 355.179V325.536L392.175 310.715ZM310.145 325.536L284.474 310.715L258.802 325.536V355.179L284.474 370L310.145 355.179V325.536ZM365.101 171L390.773 185.821V215.464L365.101 230.285L339.43 215.464V185.821L365.101 171ZM337.021 278.899L311.35 264.077L285.678 278.899V308.541L311.35 323.362L337.021 308.541V278.899ZM257.598 171L283.269 185.821V215.464L257.598 230.285L231.927 215.464V185.821L257.598 171ZM229.517 278.899L203.846 264.077L178.175 278.899V308.541L203.846 323.362L229.517 308.541V278.899ZM365.101 264.077L390.773 278.899V308.541L365.101 323.362L339.43 308.541V278.899L365.101 264.077ZM283.269 278.899L257.598 264.077L231.927 278.899V308.541L257.598 323.362L283.269 308.541V278.899ZM123.306 217.638L148.978 232.459V262.101L123.306 276.923L97.6352 262.101V232.459L123.306 217.638ZM41.2765 232.459L15.6053 217.638L-10.0659 232.459V262.101L15.6053 276.923L41.2765 262.101V232.459ZM177.058 217.638L202.729 232.459V262.101L177.058 276.923L151.387 262.101V232.459L177.058 217.638ZM95.0281 232.459L69.3569 217.638L43.6858 232.459V262.101L69.3569 276.923L95.0281 262.101V232.459ZM123.306 310.715L148.978 325.536V355.179L123.306 370L97.6352 355.179V325.536L123.306 310.715ZM41.2765 325.536L15.6053 310.715L-10.0659 325.536V355.179L15.6053 370L41.2765 355.179V325.536ZM177.058 310.715L202.729 325.536V355.179L177.058 370L151.387 355.179V325.536L177.058 310.715ZM95.0281 325.536L69.3569 310.715L43.6858 325.536V355.179L69.3569 370L95.0281 355.179V325.536ZM96.2328 171L121.904 185.821V215.464L96.2328 230.285L70.5617 215.464V185.821L96.2328 171ZM149.985 171L175.656 185.821V215.464L149.985 230.285L124.313 215.464V185.821L149.985 171ZM121.904 278.899L96.2328 264.077L70.5617 278.899V308.541L96.2328 323.362L121.904 308.541V278.899ZM42.4811 171L68.1523 185.821V215.464L42.4811 230.285L16.8099 215.464V185.821L42.4811 171ZM14.4004 278.899L-11.2707 264.077L-36.9419 278.899V308.541L-11.2707 323.362L14.4004 308.541V278.899ZM149.985 264.077L175.656 278.899V308.541L149.985 323.362L124.313 308.541V278.899L149.985 264.077ZM68.1523 278.899L42.4811 264.077L16.8099 278.899V308.541L42.4811 323.362L68.1523 308.541V278.899Z" fill="white"/>
</g>
<g style="mix-blend-mode:overlay" opacity="0.1">
<path fill-rule="evenodd" clip-rule="evenodd" d="M444.459 185.821L418.787 171L393.116 185.821V215.464L418.787 230.285L444.459 215.464V185.821ZM659.575 185.821L633.904 171L608.233 185.821V215.464L633.904 230.285L659.575 215.464V185.821ZM741.408 171L767.079 185.821V215.464L741.408 230.285L715.737 215.464V185.821L741.408 171ZM686.451 232.459L660.78 217.638L635.109 232.459V262.101L660.78 276.923L686.451 262.101V232.459ZM794.152 232.459L768.481 217.638L742.81 232.459V262.101L768.481 276.923L794.152 262.101V232.459ZM822.233 217.638L847.904 232.459V262.101L822.233 276.923L796.562 262.101V232.459L822.233 217.638ZM740.203 232.459L714.532 217.638L688.861 232.459V262.101L714.532 276.923L740.203 262.101V232.459ZM768.481 310.715L794.152 325.536V355.179L768.481 370L742.81 355.179V325.536L768.481 310.715ZM686.451 325.536L660.78 310.715L635.109 325.536V355.179L660.78 370L686.451 355.179V325.536ZM822.233 310.715L847.904 325.536V355.179L822.233 370L796.562 355.179V325.536L822.233 310.715ZM740.203 325.536L714.532 310.715L688.861 325.536V355.179L714.532 370L740.203 355.179V325.536ZM795.16 171L820.831 185.821V215.464L795.16 230.285L769.488 215.464V185.821L795.16 171ZM767.079 278.899L741.408 264.077L715.737 278.899V308.541L741.408 323.362L767.079 308.541V278.899ZM687.656 171L713.327 185.821V215.464L687.656 230.285L661.985 215.464V185.821L687.656 171ZM659.575 278.899L633.904 264.077L608.233 278.899V308.541L633.904 323.362L659.575 308.541V278.899ZM795.16 264.077L820.831 278.899V308.541L795.16 323.362L769.488 308.541V278.899L795.16 264.077ZM713.327 278.899L687.656 264.077L661.985 278.899V308.541L687.656 323.362L713.327 308.541V278.899ZM553.364 217.638L579.036 232.459V262.101L553.364 276.923L527.693 262.101V232.459L553.364 217.638ZM471.335 232.459L445.663 217.638L419.992 232.459V262.101L445.663 276.923L471.335 262.101V232.459ZM607.116 217.638L632.787 232.459V262.101L607.116 276.923L581.445 262.101V232.459L607.116 217.638ZM525.086 232.459L499.415 217.638L473.744 232.459V262.101L499.415 276.923L525.086 262.101V232.459ZM553.364 310.715L579.036 325.536V355.179L553.364 370L527.693 355.179V325.536L553.364 310.715ZM471.335 325.536L445.663 310.715L419.992 325.536V355.179L445.663 370L471.335 355.179V325.536ZM607.116 310.715L632.787 325.536V355.179L607.116 370L581.445 355.179V325.536L607.116 310.715ZM525.086 325.536L499.415 310.715L473.744 325.536V355.179L499.415 370L525.086 355.179V325.536ZM526.291 171L551.962 185.821V215.464L526.291 230.285L500.62 215.464V185.821L526.291 171ZM580.043 171L605.714 185.821V215.464L580.043 230.285L554.372 215.464V185.821L580.043 171ZM551.962 278.899L526.291 264.077L500.62 278.899V308.541L526.291 323.362L551.962 308.541V278.899ZM472.539 171L498.21 185.821V215.464L472.539 230.285L446.868 215.464V185.821L472.539 171ZM444.459 278.899L418.787 264.077L393.116 278.899V308.541L418.787 323.362L444.459 308.541V278.899ZM580.043 264.077L605.714 278.899V308.541L580.043 323.362L554.372 308.541V278.899L580.043 264.077ZM498.21 278.899L472.539 264.077L446.868 278.899V308.541L472.539 323.362L498.21 308.541V278.899Z" fill="white"/>
</g>
<g style="mix-blend-mode:overlay" opacity="0.1">
<path fill-rule="evenodd" clip-rule="evenodd" d="M874.517 185.821L848.845 171L823.174 185.821V215.464L848.845 230.285L874.517 215.464V185.821ZM1089.63 185.821L1063.96 171L1038.29 185.821V215.464L1063.96 230.285L1089.63 215.464V185.821ZM1171.47 171L1197.14 185.821V215.464L1171.47 230.285L1145.79 215.464V185.821L1171.47 171ZM1116.51 232.459L1090.84 217.638L1065.17 232.459V262.101L1090.84 276.923L1116.51 262.101V232.459ZM1224.21 232.459L1198.54 217.638L1172.87 232.459V262.101L1198.54 276.923L1224.21 262.101V232.459ZM1252.29 217.638L1277.96 232.459V262.101L1252.29 276.923L1226.62 262.101V232.459L1252.29 217.638ZM1170.26 232.459L1144.59 217.638L1118.92 232.459V262.101L1144.59 276.923L1170.26 262.101V232.459ZM1198.54 310.715L1224.21 325.536V355.179L1198.54 370L1172.87 355.179V325.536L1198.54 310.715ZM1116.51 325.536L1090.84 310.715L1065.17 325.536V355.179L1090.84 370L1116.51 355.179V325.536ZM1252.29 310.715L1277.96 325.536V355.179L1252.29 370L1226.62 355.179V325.536L1252.29 310.715ZM1170.26 325.536L1144.59 310.715L1118.92 325.536V355.179L1144.59 370L1170.26 355.179V325.536ZM1225.22 171L1250.89 185.821V215.464L1225.22 230.285L1199.55 215.464V185.821L1225.22 171ZM1197.14 278.899L1171.47 264.077L1145.79 278.899V308.541L1171.47 323.362L1197.14 308.541V278.899ZM1117.71 171L1143.39 185.821V215.464L1117.71 230.285L1092.04 215.464V185.821L1117.71 171ZM1089.63 278.899L1063.96 264.077L1038.29 278.899V308.541L1063.96 323.362L1089.63 308.541V278.899ZM1225.22 264.077L1250.89 278.899V308.541L1225.22 323.362L1199.55 308.541V278.899L1225.22 264.077ZM1143.39 278.899L1117.71 264.077L1092.04 278.899V308.541L1117.71 323.362L1143.39 308.541V278.899ZM983.423 217.638L1009.09 232.459V262.101L983.423 276.923L957.751 262.101V232.459L983.423 217.638ZM901.393 232.459L875.722 217.638L850.05 232.459V262.101L875.722 276.923L901.393 262.101V232.459ZM1037.17 217.638L1062.85 232.459V262.101L1037.17 276.923L1011.5 262.101V232.459L1037.17 217.638ZM955.144 232.459L929.473 217.638L903.802 232.459V262.101L929.473 276.923L955.144 262.101V232.459ZM983.423 310.715L1009.09 325.536V355.179L983.423 370L957.751 355.179V325.536L983.423 310.715ZM901.393 325.536L875.722 310.715L850.05 325.536V355.179L875.722 370L901.393 355.179V325.536ZM1037.17 310.715L1062.85 325.536V355.179L1037.17 370L1011.5 355.179V325.536L1037.17 310.715ZM955.144 325.536L929.473 310.715L903.802 325.536V355.179L929.473 370L955.144 355.179V325.536ZM956.349 171L982.02 185.821V215.464L956.349 230.285L930.678 215.464V185.821L956.349 171ZM1010.1 171L1035.77 185.821V215.464L1010.1 230.285L984.43 215.464V185.821L1010.1 171ZM982.02 278.899L956.349 264.077L930.678 278.899V308.541L956.349 323.362L982.02 308.541V278.899ZM902.597 171L928.268 185.821V215.464L902.597 230.285L876.926 215.464V185.821L902.597 171ZM874.517 278.899L848.845 264.077L823.174 278.899V308.541L848.845 323.362L874.517 308.541V278.899ZM1010.1 264.077L1035.77 278.899V308.541L1010.1 323.362L984.43 308.541V278.899L1010.1 264.077ZM928.268 278.899L902.597 264.077L876.926 278.899V308.541L902.597 323.362L928.268 308.541V278.899Z" fill="white"/>
</g>
</svg>
