<svg xmlns="http://www.w3.org/2000/svg" xmlns:xlink="http://www.w3.org/1999/xlink" width="400" zoomAndPan="magnify" viewBox="0 0 300 149.999998" height="200" preserveAspectRatio="xMidYMid meet" version="1.0"><defs><g/><clipPath id="0ef3205d37"><path d="M 2 15 L 151.199219 15 L 151.199219 117.277344 L 2 117.277344 Z M 2 15 " clip-rule="nonzero"/></clipPath></defs><g clip-path="url(#0ef3205d37)"><path fill="#ff9202" d="M 322.640625 111.929688 C 324.238281 111.929688 325.53125 113.226562 325.53125 114.824219 C 325.53125 116.417969 324.238281 117.714844 322.640625 117.714844 L 25.714844 117.714844 C 22.859375 117.714844 20.257812 116.546875 18.375 114.664062 C 16.496094 112.78125 15.328125 110.183594 15.328125 107.324219 L 15.328125 70.796875 L 10.175781 70.796875 C 8.160156 70.796875 6.503906 70.269531 5.210938 69.394531 C 3.78125 68.425781 2.832031 67.058594 2.355469 65.503906 L 2.351562 65.503906 C 1.910156 64.0625 1.894531 62.46875 2.292969 60.925781 C 2.765625 59.085938 3.828125 57.289062 5.441406 55.898438 L 49.710938 17.738281 C 51.832031 15.914062 54.578125 15 57.296875 15 C 60.015625 15 62.761719 15.914062 64.878906 17.738281 L 94.632812 43.472656 C 95.835938 44.511719 95.964844 46.332031 94.925781 47.535156 C 93.882812 48.742188 92.0625 48.871094 90.859375 47.832031 L 61.109375 22.097656 C 60.089844 21.222656 58.707031 20.785156 57.296875 20.785156 C 55.886719 20.785156 54.5 21.222656 53.484375 22.097656 L 9.214844 60.261719 C 8.515625 60.863281 8.066406 61.605469 7.875 62.351562 C 7.738281 62.871094 7.734375 63.378906 7.867188 63.808594 L 7.863281 63.808594 L 7.867188 63.820312 C 7.960938 64.128906 8.152344 64.40625 8.441406 64.601562 C 8.820312 64.859375 9.390625 65.011719 10.175781 65.011719 L 18.21875 65.011719 C 19.816406 65.011719 21.109375 66.308594 21.109375 67.90625 L 21.109375 107.324219 C 21.109375 108.585938 21.628906 109.742188 22.464844 110.574219 C 23.300781 111.410156 24.453125 111.929688 25.714844 111.929688 Z M 322.640625 111.929688 " fill-opacity="1" fill-rule="nonzero"/></g><g fill="#ffffff" fill-opacity="1"><g transform="translate(72.963433, 94.821483)"><g><path d="M 17.71875 0.484375 C 14.476562 0.484375 12.070312 -0.722656 10.5 -3.140625 L 10.015625 -3.0625 L 10.015625 0 L 3.65625 0 L 3.65625 -35.515625 L 10.015625 -35.515625 L 10.015625 -22.359375 L 10.5 -22.265625 C 11.375 -23.472656 12.40625 -24.367188 13.59375 -24.953125 C 14.78125 -25.535156 16.195312 -25.828125 17.84375 -25.828125 C 19.894531 -25.828125 21.6875 -25.34375 23.21875 -24.375 C 24.75 -23.40625 25.941406 -21.9375 26.796875 -19.96875 C 27.660156 -18 28.09375 -15.5625 28.09375 -12.65625 C 28.09375 -9.78125 27.648438 -7.359375 26.765625 -5.390625 C 25.878906 -3.421875 24.65625 -1.945312 23.09375 -0.96875 C 21.53125 0 19.738281 0.484375 17.71875 0.484375 Z M 15.78125 -4.921875 C 17.644531 -4.921875 19.066406 -5.539062 20.046875 -6.78125 C 21.035156 -8.03125 21.53125 -9.988281 21.53125 -12.65625 C 21.53125 -15.332031 21.035156 -17.296875 20.046875 -18.546875 C 19.066406 -19.796875 17.644531 -20.421875 15.78125 -20.421875 C 13.988281 -20.421875 12.566406 -19.773438 11.515625 -18.484375 C 10.472656 -17.203125 9.953125 -15.257812 9.953125 -12.65625 C 9.953125 -10.050781 10.472656 -8.109375 11.515625 -6.828125 C 12.566406 -5.554688 13.988281 -4.921875 15.78125 -4.921875 Z M 15.78125 -4.921875 "/></g></g></g><g fill="#ffffff" fill-opacity="1"><g transform="translate(101.100919, 94.821483)"><g><path d="M 10.515625 0.484375 C 8.234375 0.484375 6.488281 -0.128906 5.28125 -1.359375 C 4.082031 -2.597656 3.484375 -4.472656 3.484375 -6.984375 L 3.484375 -35.515625 L 9.859375 -35.515625 L 9.859375 -7.234375 C 9.859375 -5.691406 10.5 -4.921875 11.78125 -4.921875 C 12.15625 -4.921875 12.546875 -4.976562 12.953125 -5.09375 L 13.28125 -5.015625 L 13.859375 -0.109375 C 13.503906 0.0664062 13.035156 0.207031 12.453125 0.3125 C 11.867188 0.425781 11.222656 0.484375 10.515625 0.484375 Z M 10.515625 0.484375 "/></g></g></g><g fill="#ffffff" fill-opacity="1"><g transform="translate(113.455022, 94.821483)"><g><path d="M 11.59375 0.484375 C 8.75 0.484375 6.648438 -0.289062 5.296875 -1.84375 C 3.941406 -3.40625 3.265625 -5.640625 3.265625 -8.546875 L 3.265625 -25.34375 L 9.625 -25.34375 L 9.625 -9.34375 C 9.625 -7.800781 9.957031 -6.671875 10.625 -5.953125 C 11.289062 -5.242188 12.320312 -4.890625 13.71875 -4.890625 C 15.476562 -4.890625 16.847656 -5.46875 17.828125 -6.625 C 18.804688 -7.78125 19.296875 -9.597656 19.296875 -12.078125 L 19.296875 -25.34375 L 25.65625 -25.34375 L 25.65625 0 L 19.546875 0 L 19.546875 -3.71875 L 19.0625 -3.84375 C 18.25 -2.382812 17.253906 -1.296875 16.078125 -0.578125 C 14.910156 0.128906 13.414062 0.484375 11.59375 0.484375 Z M 11.59375 0.484375 "/></g></g></g><g fill="#ffffff" fill-opacity="1"><g transform="translate(140.558659, 94.821483)"><g><path d="M 25.046875 -11.234375 L 8.75 -11.234375 C 8.9375 -9.023438 9.566406 -7.421875 10.640625 -6.421875 C 11.710938 -5.421875 13.175781 -4.921875 15.03125 -4.921875 C 16.476562 -4.921875 17.65625 -5.191406 18.5625 -5.734375 C 19.46875 -6.273438 20.195312 -7.097656 20.75 -8.203125 L 21.21875 -8.203125 L 25.453125 -5.484375 C 24.628906 -3.710938 23.378906 -2.273438 21.703125 -1.171875 C 20.035156 -0.0664062 17.8125 0.484375 15.03125 0.484375 C 12.40625 0.484375 10.140625 -0.0078125 8.234375 -1 C 6.328125 -2 4.859375 -3.484375 3.828125 -5.453125 C 2.796875 -7.421875 2.28125 -9.820312 2.28125 -12.65625 C 2.28125 -15.53125 2.820312 -17.957031 3.90625 -19.9375 C 4.988281 -21.914062 6.457031 -23.390625 8.3125 -24.359375 C 10.164062 -25.335938 12.25 -25.828125 14.5625 -25.828125 C 18.144531 -25.828125 20.890625 -24.875 22.796875 -22.96875 C 24.703125 -21.070312 25.65625 -18.285156 25.65625 -14.609375 C 25.65625 -13.273438 25.609375 -12.242188 25.515625 -11.515625 Z M 19.578125 -15.34375 C 19.515625 -17.269531 19.0625 -18.671875 18.21875 -19.546875 C 17.382812 -20.429688 16.164062 -20.875 14.5625 -20.875 C 11.34375 -20.875 9.453125 -19.03125 8.890625 -15.34375 Z M 19.578125 -15.34375 "/></g></g></g><g fill="#ffffff" fill-opacity="1"><g transform="translate(165.893272, 94.821483)"><g><path d="M 3.65625 0 L 3.65625 -35.515625 L 10.015625 -35.515625 L 10.015625 -22.03125 L 10.5 -21.9375 C 11.34375 -23.175781 12.375 -24.132812 13.59375 -24.8125 C 14.820312 -25.488281 16.300781 -25.828125 18.03125 -25.828125 C 23.625 -25.828125 26.421875 -22.65625 26.421875 -16.3125 L 26.421875 0 L 20.046875 0 L 20.046875 -15.5 C 20.046875 -17.238281 19.703125 -18.492188 19.015625 -19.265625 C 18.328125 -20.046875 17.257812 -20.4375 15.8125 -20.4375 C 14.03125 -20.4375 12.617188 -19.84375 11.578125 -18.65625 C 10.535156 -17.476562 10.015625 -15.628906 10.015625 -13.109375 L 10.015625 0 Z M 3.65625 0 "/></g></g></g><g fill="#ffffff" fill-opacity="1"><g transform="translate(193.364493, 94.821483)"><g><path d="M 14.71875 0.484375 C 12.238281 0.484375 10.0625 -0.0234375 8.1875 -1.046875 C 6.3125 -2.066406 4.859375 -3.5625 3.828125 -5.53125 C 2.796875 -7.5 2.28125 -9.875 2.28125 -12.65625 C 2.28125 -15.445312 2.796875 -17.828125 3.828125 -19.796875 C 4.859375 -21.773438 6.3125 -23.273438 8.1875 -24.296875 C 10.0625 -25.316406 12.238281 -25.828125 14.71875 -25.828125 C 17.207031 -25.828125 19.390625 -25.316406 21.265625 -24.296875 C 23.140625 -23.273438 24.597656 -21.773438 25.640625 -19.796875 C 26.679688 -17.828125 27.203125 -15.445312 27.203125 -12.65625 C 27.203125 -9.875 26.679688 -7.5 25.640625 -5.53125 C 24.597656 -3.5625 23.140625 -2.066406 21.265625 -1.046875 C 19.390625 -0.0234375 17.207031 0.484375 14.71875 0.484375 Z M 14.71875 -4.921875 C 18.65625 -4.921875 20.625 -7.5 20.625 -12.65625 C 20.625 -15.332031 20.117188 -17.296875 19.109375 -18.546875 C 18.097656 -19.796875 16.632812 -20.421875 14.71875 -20.421875 C 10.789062 -20.421875 8.828125 -17.832031 8.828125 -12.65625 C 8.828125 -7.5 10.789062 -4.921875 14.71875 -4.921875 Z M 14.71875 -4.921875 "/></g></g></g><g fill="#ffffff" fill-opacity="1"><g transform="translate(220.605969, 94.821483)"><g><path d="M 11.59375 0.484375 C 8.75 0.484375 6.648438 -0.289062 5.296875 -1.84375 C 3.941406 -3.40625 3.265625 -5.640625 3.265625 -8.546875 L 3.265625 -25.34375 L 9.625 -25.34375 L 9.625 -9.34375 C 9.625 -7.800781 9.957031 -6.671875 10.625 -5.953125 C 11.289062 -5.242188 12.320312 -4.890625 13.71875 -4.890625 C 15.476562 -4.890625 16.847656 -5.46875 17.828125 -6.625 C 18.804688 -7.78125 19.296875 -9.597656 19.296875 -12.078125 L 19.296875 -25.34375 L 25.65625 -25.34375 L 25.65625 0 L 19.546875 0 L 19.546875 -3.71875 L 19.0625 -3.84375 C 18.25 -2.382812 17.253906 -1.296875 16.078125 -0.578125 C 14.910156 0.128906 13.414062 0.484375 11.59375 0.484375 Z M 11.59375 0.484375 "/></g></g></g><g fill="#ffffff" fill-opacity="1"><g transform="translate(247.7096, 94.821483)"><g><path d="M 11.859375 0.484375 C 10.117188 0.484375 8.53125 0.28125 7.09375 -0.125 C 5.65625 -0.53125 4.425781 -1.085938 3.40625 -1.796875 C 2.394531 -2.515625 1.644531 -3.332031 1.15625 -4.25 L 4.6875 -8.0625 L 5.171875 -8.0625 C 6.015625 -6.925781 7.007812 -6.070312 8.15625 -5.5 C 9.300781 -4.9375 10.550781 -4.65625 11.90625 -4.65625 C 13.144531 -4.65625 14.078125 -4.878906 14.703125 -5.328125 C 15.328125 -5.773438 15.640625 -6.410156 15.640625 -7.234375 C 15.640625 -7.878906 15.410156 -8.421875 14.953125 -8.859375 C 14.503906 -9.296875 13.773438 -9.632812 12.765625 -9.875 L 9.421875 -10.6875 C 6.910156 -11.28125 5.078125 -12.191406 3.921875 -13.421875 C 2.765625 -14.660156 2.1875 -16.226562 2.1875 -18.125 C 2.1875 -19.695312 2.585938 -21.066406 3.390625 -22.234375 C 4.191406 -23.398438 5.320312 -24.289062 6.78125 -24.90625 C 8.25 -25.519531 9.957031 -25.828125 11.90625 -25.828125 C 14.1875 -25.828125 16.078125 -25.492188 17.578125 -24.828125 C 19.078125 -24.171875 20.25 -23.289062 21.09375 -22.1875 L 17.6875 -18.515625 L 17.234375 -18.515625 C 16.523438 -19.304688 15.726562 -19.882812 14.84375 -20.25 C 13.96875 -20.625 12.988281 -20.8125 11.90625 -20.8125 C 9.382812 -20.8125 8.125 -20.03125 8.125 -18.46875 C 8.125 -17.8125 8.359375 -17.273438 8.828125 -16.859375 C 9.296875 -16.441406 10.117188 -16.101562 11.296875 -15.84375 L 14.421875 -15.15625 C 16.992188 -14.601562 18.875 -13.71875 20.0625 -12.5 C 21.25 -11.289062 21.84375 -9.660156 21.84375 -7.609375 C 21.84375 -5.992188 21.441406 -4.570312 20.640625 -3.34375 C 19.847656 -2.125 18.703125 -1.179688 17.203125 -0.515625 C 15.703125 0.148438 13.921875 0.484375 11.859375 0.484375 Z M 11.859375 0.484375 "/></g></g></g><g fill="#ffffff" fill-opacity="1"><g transform="translate(268.862881, 94.821483)"><g><path d="M 25.046875 -11.234375 L 8.75 -11.234375 C 8.9375 -9.023438 9.566406 -7.421875 10.640625 -6.421875 C 11.710938 -5.421875 13.175781 -4.921875 15.03125 -4.921875 C 16.476562 -4.921875 17.65625 -5.191406 18.5625 -5.734375 C 19.46875 -6.273438 20.195312 -7.097656 20.75 -8.203125 L 21.21875 -8.203125 L 25.453125 -5.484375 C 24.628906 -3.710938 23.378906 -2.273438 21.703125 -1.171875 C 20.035156 -0.0664062 17.8125 0.484375 15.03125 0.484375 C 12.40625 0.484375 10.140625 -0.0078125 8.234375 -1 C 6.328125 -2 4.859375 -3.484375 3.828125 -5.453125 C 2.796875 -7.421875 2.28125 -9.820312 2.28125 -12.65625 C 2.28125 -15.53125 2.820312 -17.957031 3.90625 -19.9375 C 4.988281 -21.914062 6.457031 -23.390625 8.3125 -24.359375 C 10.164062 -25.335938 12.25 -25.828125 14.5625 -25.828125 C 18.144531 -25.828125 20.890625 -24.875 22.796875 -22.96875 C 24.703125 -21.070312 25.65625 -18.285156 25.65625 -14.609375 C 25.65625 -13.273438 25.609375 -12.242188 25.515625 -11.515625 Z M 19.578125 -15.34375 C 19.515625 -17.269531 19.0625 -18.671875 18.21875 -19.546875 C 17.382812 -20.429688 16.164062 -20.875 14.5625 -20.875 C 11.34375 -20.875 9.453125 -19.03125 8.890625 -15.34375 Z M 19.578125 -15.34375 "/></g></g></g><g fill="#ffffff" fill-opacity="1"><g transform="translate(197.394454, 114.513328)"><g><path d="M 6.375 -5.953125 C 6.375 -5.285156 6.226562 -4.75 5.9375 -4.34375 C 5.644531 -3.945312 5.21875 -3.671875 4.65625 -3.515625 L 6.71875 0 L 4.796875 0 L 2.828125 -3.390625 L 2.375 -3.390625 L 2.375 0 L 0.703125 0 L 0.703125 -8.328125 L 3.53125 -8.328125 C 4.46875 -8.328125 5.175781 -8.117188 5.65625 -7.703125 C 6.132812 -7.285156 6.375 -6.703125 6.375 -5.953125 Z M 2.375 -6.90625 L 2.375 -4.796875 L 3.53125 -4.796875 C 3.925781 -4.796875 4.21875 -4.875 4.40625 -5.03125 C 4.601562 -5.1875 4.703125 -5.476562 4.703125 -5.90625 C 4.703125 -6.207031 4.601562 -6.445312 4.40625 -6.625 C 4.21875 -6.8125 3.925781 -6.90625 3.53125 -6.90625 Z M 2.375 -6.90625 "/></g></g></g><g fill="#ffffff" fill-opacity="1"><g transform="translate(206.653553, 114.513328)"><g><path d="M 2.375 -3.453125 L 2.375 -1.421875 L 6.234375 -1.421875 L 6.234375 0 L 0.703125 0 L 0.703125 -8.328125 L 6.109375 -8.328125 L 6.109375 -6.90625 L 2.375 -6.90625 L 2.375 -4.875 L 5.9375 -4.875 L 5.9375 -3.453125 Z M 2.375 -3.453125 "/></g></g></g><g fill="#ffffff" fill-opacity="1"><g transform="translate(215.686866, 114.513328)"><g><path d="M 5.625 -1.796875 L 2.65625 -1.796875 L 2.015625 0 L 0.203125 0 L 3.25 -8.328125 L 5.03125 -8.328125 L 8.078125 0 L 6.265625 0 Z M 3.1875 -3.203125 L 5.078125 -3.203125 L 4.125 -5.890625 Z M 3.1875 -3.203125 "/></g></g></g><g fill="#ffffff" fill-opacity="1"><g transform="translate(226.288801, 114.513328)"><g><path d="M 2.375 -1.421875 L 5.765625 -1.421875 L 5.765625 0 L 0.703125 0 L 0.703125 -8.328125 L 2.375 -8.328125 Z M 2.375 -1.421875 "/></g></g></g><g fill="#ffffff" fill-opacity="1"><g transform="translate(234.846769, 114.513328)"><g/></g></g><g fill="#ffffff" fill-opacity="1"><g transform="translate(240.861672, 114.513328)"><g><path d="M 2.375 -3.453125 L 2.375 -1.421875 L 6.234375 -1.421875 L 6.234375 0 L 0.703125 0 L 0.703125 -8.328125 L 6.109375 -8.328125 L 6.109375 -6.90625 L 2.375 -6.90625 L 2.375 -4.875 L 5.9375 -4.875 L 5.9375 -3.453125 Z M 2.375 -3.453125 "/></g></g></g><g fill="#ffffff" fill-opacity="1"><g transform="translate(249.894986, 114.513328)"><g><path d="M 6.65625 -2.421875 C 6.65625 -1.941406 6.570312 -1.535156 6.40625 -1.203125 C 6.25 -0.878906 6.023438 -0.617188 5.734375 -0.421875 C 5.453125 -0.222656 5.117188 -0.0820312 4.734375 0 C 4.359375 0.0820312 3.957031 0.125 3.53125 0.125 C 2.9375 0.125 2.375 0.046875 1.84375 -0.109375 C 1.320312 -0.265625 0.863281 -0.457031 0.46875 -0.6875 L 1.125 -2.03125 C 1.34375 -1.882812 1.546875 -1.765625 1.734375 -1.671875 C 1.921875 -1.578125 2.101562 -1.503906 2.28125 -1.453125 C 2.46875 -1.398438 2.660156 -1.359375 2.859375 -1.328125 C 3.054688 -1.304688 3.273438 -1.296875 3.515625 -1.296875 C 3.941406 -1.296875 4.289062 -1.375 4.5625 -1.53125 C 4.84375 -1.6875 4.984375 -1.96875 4.984375 -2.375 C 4.984375 -2.601562 4.921875 -2.78125 4.796875 -2.90625 C 4.671875 -3.039062 4.503906 -3.148438 4.296875 -3.234375 C 4.097656 -3.316406 3.867188 -3.382812 3.609375 -3.4375 C 3.359375 -3.488281 3.097656 -3.550781 2.828125 -3.625 C 2.554688 -3.695312 2.289062 -3.785156 2.03125 -3.890625 C 1.78125 -4.003906 1.550781 -4.160156 1.34375 -4.359375 C 1.144531 -4.554688 0.984375 -4.800781 0.859375 -5.09375 C 0.734375 -5.394531 0.671875 -5.765625 0.671875 -6.203125 C 0.671875 -6.585938 0.742188 -6.921875 0.890625 -7.203125 C 1.046875 -7.484375 1.253906 -7.71875 1.515625 -7.90625 C 1.785156 -8.09375 2.09375 -8.226562 2.4375 -8.3125 C 2.789062 -8.394531 3.171875 -8.4375 3.578125 -8.4375 C 4.171875 -8.4375 4.703125 -8.375 5.171875 -8.25 C 5.648438 -8.125 6.082031 -7.96875 6.46875 -7.78125 L 5.90625 -6.453125 C 5.625 -6.609375 5.285156 -6.742188 4.890625 -6.859375 C 4.503906 -6.972656 4.066406 -7.03125 3.578125 -7.03125 C 3.234375 -7.03125 2.941406 -6.960938 2.703125 -6.828125 C 2.472656 -6.691406 2.359375 -6.484375 2.359375 -6.203125 C 2.359375 -5.867188 2.460938 -5.617188 2.671875 -5.453125 C 2.890625 -5.296875 3.15625 -5.171875 3.46875 -5.078125 C 3.789062 -4.992188 4.132812 -4.914062 4.5 -4.84375 C 4.875 -4.769531 5.21875 -4.648438 5.53125 -4.484375 C 5.851562 -4.316406 6.117188 -4.070312 6.328125 -3.75 C 6.546875 -3.4375 6.65625 -2.992188 6.65625 -2.421875 Z M 6.65625 -2.421875 "/></g></g></g><g fill="#ffffff" fill-opacity="1"><g transform="translate(259.391755, 114.513328)"><g><path d="M 4.328125 -6.90625 L 4.328125 0 L 2.65625 0 L 2.65625 -6.90625 L 0.421875 -6.90625 L 0.421875 -8.328125 L 6.546875 -8.328125 L 6.546875 -6.90625 Z M 4.328125 -6.90625 "/></g></g></g><g fill="#ffffff" fill-opacity="1"><g transform="translate(268.710266, 114.513328)"><g><path d="M 5.625 -1.796875 L 2.65625 -1.796875 L 2.015625 0 L 0.203125 0 L 3.25 -8.328125 L 5.03125 -8.328125 L 8.078125 0 L 6.265625 0 Z M 3.1875 -3.203125 L 5.078125 -3.203125 L 4.125 -5.890625 Z M 3.1875 -3.203125 "/></g></g></g><g fill="#ffffff" fill-opacity="1"><g transform="translate(279.312203, 114.513328)"><g><path d="M 4.328125 -6.90625 L 4.328125 0 L 2.65625 0 L 2.65625 -6.90625 L 0.421875 -6.90625 L 0.421875 -8.328125 L 6.546875 -8.328125 L 6.546875 -6.90625 Z M 4.328125 -6.90625 "/></g></g></g><g fill="#ffffff" fill-opacity="1"><g transform="translate(288.630714, 114.513328)"><g><path d="M 2.375 -3.453125 L 2.375 -1.421875 L 6.234375 -1.421875 L 6.234375 0 L 0.703125 0 L 0.703125 -8.328125 L 6.109375 -8.328125 L 6.109375 -6.90625 L 2.375 -6.90625 L 2.375 -4.875 L 5.9375 -4.875 L 5.9375 -3.453125 Z M 2.375 -3.453125 "/></g></g></g></svg>