<svg xmlns="http://www.w3.org/2000/svg" xmlns:xlink="http://www.w3.org/1999/xlink" width="400" zoomAndPan="magnify" viewBox="0 0 300 149.999998" height="200" preserveAspectRatio="xMidYMid meet" version="1.0"><defs><g/><clipPath id="5abf42dcf7"><path d="M 2.570312 5.988281 L 173.9375 5.988281 L 173.9375 123.613281 L 2.570312 123.613281 Z M 2.570312 5.988281 " clip-rule="nonzero"/></clipPath></defs><g clip-path="url(#5abf42dcf7)"><path fill="#ff9202" d="M 371.425781 117.402344 C 373.261719 117.402344 374.75 118.890625 374.75 120.726562 C 374.75 122.5625 373.261719 124.050781 371.425781 124.050781 L 30.132812 124.050781 C 26.847656 124.050781 23.859375 122.707031 21.695312 120.546875 C 19.535156 118.382812 18.191406 115.394531 18.191406 112.109375 L 18.191406 70.121094 L 12.269531 70.121094 C 9.957031 70.121094 8.050781 69.515625 6.566406 68.511719 C 4.921875 67.398438 3.828125 65.824219 3.28125 64.039062 L 3.277344 64.039062 C 2.769531 62.378906 2.753906 60.550781 3.210938 58.777344 C 3.753906 56.660156 4.972656 54.597656 6.828125 53 L 57.714844 9.132812 C 60.148438 7.035156 63.308594 5.988281 66.433594 5.988281 C 69.554688 5.988281 72.714844 7.035156 75.148438 9.132812 L 109.347656 38.714844 C 110.730469 39.910156 110.878906 42.003906 109.683594 43.386719 C 108.488281 44.769531 106.394531 44.921875 105.011719 43.726562 L 70.8125 14.148438 C 69.644531 13.140625 68.054688 12.636719 66.433594 12.636719 C 64.8125 12.636719 63.21875 13.140625 62.046875 14.148438 L 11.164062 58.011719 C 10.363281 58.703125 9.84375 59.558594 9.625 60.414062 C 9.46875 61.015625 9.464844 61.597656 9.613281 62.089844 L 9.609375 62.089844 L 9.613281 62.105469 C 9.722656 62.460938 9.945312 62.777344 10.277344 63.003906 C 10.710938 63.296875 11.367188 63.472656 12.269531 63.472656 L 21.515625 63.472656 C 23.347656 63.472656 24.839844 64.960938 24.839844 66.796875 L 24.839844 112.109375 C 24.839844 113.5625 25.4375 114.886719 26.394531 115.847656 C 27.355469 116.804688 28.679688 117.402344 30.132812 117.402344 Z M 371.425781 117.402344 " fill-opacity="1" fill-rule="nonzero"/></g><g fill="#002f6d" fill-opacity="1"><g transform="translate(41.301679, 100.860245)"><g><path d="M 20.359375 0.546875 C 16.640625 0.546875 13.875 -0.84375 12.0625 -3.625 L 11.515625 -3.515625 L 11.515625 0 L 4.203125 0 L 4.203125 -40.828125 L 11.515625 -40.828125 L 11.515625 -25.6875 L 12.0625 -25.59375 C 13.070312 -26.976562 14.257812 -28.003906 15.625 -28.671875 C 16.988281 -29.335938 18.617188 -29.671875 20.515625 -29.671875 C 22.878906 -29.671875 24.941406 -29.117188 26.703125 -28.015625 C 28.460938 -26.910156 29.832031 -25.222656 30.8125 -22.953125 C 31.800781 -20.691406 32.296875 -17.890625 32.296875 -14.546875 C 32.296875 -11.234375 31.785156 -8.445312 30.765625 -6.1875 C 29.742188 -3.925781 28.332031 -2.238281 26.53125 -1.125 C 24.738281 -0.0078125 22.679688 0.546875 20.359375 0.546875 Z M 18.140625 -5.65625 C 20.285156 -5.65625 21.921875 -6.367188 23.046875 -7.796875 C 24.171875 -9.234375 24.734375 -11.484375 24.734375 -14.546875 C 24.734375 -17.628906 24.171875 -19.882812 23.046875 -21.3125 C 21.921875 -22.75 20.285156 -23.46875 18.140625 -23.46875 C 16.078125 -23.46875 14.441406 -22.726562 13.234375 -21.25 C 12.035156 -19.769531 11.4375 -17.535156 11.4375 -14.546875 C 11.4375 -11.554688 12.035156 -9.328125 13.234375 -7.859375 C 14.441406 -6.390625 16.078125 -5.65625 18.140625 -5.65625 Z M 18.140625 -5.65625 "/></g></g></g><g fill="#002f6d" fill-opacity="1"><g transform="translate(73.639224, 100.860245)"><g><path d="M 12.09375 0.546875 C 9.46875 0.546875 7.460938 -0.160156 6.078125 -1.578125 C 4.703125 -2.992188 4.015625 -5.144531 4.015625 -8.03125 L 4.015625 -40.828125 L 11.328125 -40.828125 L 11.328125 -8.3125 C 11.328125 -6.539062 12.066406 -5.65625 13.546875 -5.65625 C 13.960938 -5.65625 14.410156 -5.722656 14.890625 -5.859375 L 15.265625 -5.75 L 15.921875 -0.125 C 15.515625 0.0820312 14.976562 0.242188 14.3125 0.359375 C 13.644531 0.484375 12.90625 0.546875 12.09375 0.546875 Z M 12.09375 0.546875 "/></g></g></g><g fill="#002f6d" fill-opacity="1"><g transform="translate(87.837414, 100.860245)"><g><path d="M 13.328125 0.546875 C 10.054688 0.546875 7.640625 -0.34375 6.078125 -2.125 C 4.523438 -3.914062 3.75 -6.484375 3.75 -9.828125 L 3.75 -29.125 L 11.0625 -29.125 L 11.0625 -10.75 C 11.0625 -8.96875 11.441406 -7.664062 12.203125 -6.84375 C 12.972656 -6.03125 14.160156 -5.625 15.765625 -5.625 C 17.785156 -5.625 19.359375 -6.285156 20.484375 -7.609375 C 21.617188 -8.941406 22.1875 -11.035156 22.1875 -13.890625 L 22.1875 -29.125 L 29.5 -29.125 L 29.5 0 L 22.46875 0 L 22.46875 -4.28125 L 21.921875 -4.40625 C 20.984375 -2.738281 19.84375 -1.492188 18.5 -0.671875 C 17.15625 0.140625 15.429688 0.546875 13.328125 0.546875 Z M 13.328125 0.546875 "/></g></g></g><g fill="#002f6d" fill-opacity="1"><g transform="translate(118.986788, 100.860245)"><g><path d="M 28.78125 -12.90625 L 10.0625 -12.90625 C 10.269531 -10.375 10.988281 -8.53125 12.21875 -7.375 C 13.457031 -6.226562 15.140625 -5.65625 17.265625 -5.65625 C 18.941406 -5.65625 20.296875 -5.96875 21.328125 -6.59375 C 22.367188 -7.21875 23.207031 -8.160156 23.84375 -9.421875 L 24.40625 -9.421875 L 29.25 -6.3125 C 28.300781 -4.269531 26.867188 -2.613281 24.953125 -1.34375 C 23.035156 -0.0820312 20.472656 0.546875 17.265625 0.546875 C 14.253906 0.546875 11.648438 -0.0195312 9.453125 -1.15625 C 7.265625 -2.300781 5.578125 -4.003906 4.390625 -6.265625 C 3.203125 -8.535156 2.609375 -11.296875 2.609375 -14.546875 C 2.609375 -17.859375 3.234375 -20.648438 4.484375 -22.921875 C 5.734375 -25.191406 7.421875 -26.882812 9.546875 -28 C 11.679688 -29.113281 14.078125 -29.671875 16.734375 -29.671875 C 20.859375 -29.671875 24.015625 -28.578125 26.203125 -26.390625 C 28.398438 -24.210938 29.5 -21.015625 29.5 -16.796875 C 29.5 -15.265625 29.445312 -14.078125 29.34375 -13.234375 Z M 22.5 -17.640625 C 22.425781 -19.859375 21.910156 -21.472656 20.953125 -22.484375 C 19.992188 -23.492188 18.585938 -24 16.734375 -24 C 13.046875 -24 10.875 -21.878906 10.21875 -17.640625 Z M 22.5 -17.640625 "/></g></g></g><g fill="#002f6d" fill-opacity="1"><g transform="translate(148.103077, 100.860245)"><g><path d="M 4.203125 0 L 4.203125 -40.828125 L 11.515625 -40.828125 L 11.515625 -25.328125 L 12.0625 -25.21875 C 13.03125 -26.644531 14.21875 -27.742188 15.625 -28.515625 C 17.039062 -29.285156 18.742188 -29.671875 20.734375 -29.671875 C 27.148438 -29.671875 30.359375 -26.03125 30.359375 -18.75 L 30.359375 0 L 23.046875 0 L 23.046875 -17.828125 C 23.046875 -19.816406 22.648438 -21.257812 21.859375 -22.15625 C 21.066406 -23.050781 19.835938 -23.5 18.171875 -23.5 C 16.128906 -23.5 14.507812 -22.816406 13.3125 -21.453125 C 12.113281 -20.085938 11.515625 -17.960938 11.515625 -15.078125 L 11.515625 0 Z M 4.203125 0 "/></g></g></g><g fill="#002f6d" fill-opacity="1"><g transform="translate(179.674903, 100.860245)"><g><path d="M 16.921875 0.546875 C 14.066406 0.546875 11.5625 -0.0351562 9.40625 -1.203125 C 7.25 -2.367188 5.578125 -4.082031 4.390625 -6.34375 C 3.203125 -8.613281 2.609375 -11.347656 2.609375 -14.546875 C 2.609375 -17.753906 3.203125 -20.492188 4.390625 -22.765625 C 5.578125 -25.035156 7.25 -26.753906 9.40625 -27.921875 C 11.5625 -29.085938 14.066406 -29.671875 16.921875 -29.671875 C 19.773438 -29.671875 22.28125 -29.085938 24.4375 -27.921875 C 26.59375 -26.753906 28.269531 -25.035156 29.46875 -22.765625 C 30.664062 -20.492188 31.265625 -17.753906 31.265625 -14.546875 C 31.265625 -11.347656 30.664062 -8.613281 29.46875 -6.34375 C 28.269531 -4.082031 26.59375 -2.367188 24.4375 -1.203125 C 22.28125 -0.0351562 19.773438 0.546875 16.921875 0.546875 Z M 16.921875 -5.65625 C 21.453125 -5.65625 23.71875 -8.617188 23.71875 -14.546875 C 23.71875 -17.628906 23.132812 -19.882812 21.96875 -21.3125 C 20.800781 -22.75 19.117188 -23.46875 16.921875 -23.46875 C 12.398438 -23.46875 10.140625 -20.492188 10.140625 -14.546875 C 10.140625 -8.617188 12.398438 -5.65625 16.921875 -5.65625 Z M 16.921875 -5.65625 "/></g></g></g><g fill="#002f6d" fill-opacity="1"><g transform="translate(210.982691, 100.860245)"><g><path d="M 13.328125 0.546875 C 10.054688 0.546875 7.640625 -0.34375 6.078125 -2.125 C 4.523438 -3.914062 3.75 -6.484375 3.75 -9.828125 L 3.75 -29.125 L 11.0625 -29.125 L 11.0625 -10.75 C 11.0625 -8.96875 11.441406 -7.664062 12.203125 -6.84375 C 12.972656 -6.03125 14.160156 -5.625 15.765625 -5.625 C 17.785156 -5.625 19.359375 -6.285156 20.484375 -7.609375 C 21.617188 -8.941406 22.1875 -11.035156 22.1875 -13.890625 L 22.1875 -29.125 L 29.5 -29.125 L 29.5 0 L 22.46875 0 L 22.46875 -4.28125 L 21.921875 -4.40625 C 20.984375 -2.738281 19.84375 -1.492188 18.5 -0.671875 C 17.15625 0.140625 15.429688 0.546875 13.328125 0.546875 Z M 13.328125 0.546875 "/></g></g></g><g fill="#002f6d" fill-opacity="1"><g transform="translate(242.132058, 100.860245)"><g><path d="M 13.625 0.546875 C 11.632812 0.546875 9.8125 0.316406 8.15625 -0.140625 C 6.5 -0.609375 5.085938 -1.25 3.921875 -2.0625 C 2.753906 -2.882812 1.882812 -3.828125 1.3125 -4.890625 L 5.390625 -9.265625 L 5.9375 -9.265625 C 6.90625 -7.960938 8.050781 -6.984375 9.375 -6.328125 C 10.695312 -5.679688 12.128906 -5.359375 13.671875 -5.359375 C 15.097656 -5.359375 16.171875 -5.613281 16.890625 -6.125 C 17.617188 -6.632812 17.984375 -7.363281 17.984375 -8.3125 C 17.984375 -9.050781 17.722656 -9.671875 17.203125 -10.171875 C 16.679688 -10.679688 15.84375 -11.078125 14.6875 -11.359375 L 10.828125 -12.28125 C 7.941406 -12.96875 5.832031 -14.019531 4.5 -15.4375 C 3.175781 -16.851562 2.515625 -18.648438 2.515625 -20.828125 C 2.515625 -22.640625 2.972656 -24.210938 3.890625 -25.546875 C 4.816406 -26.890625 6.117188 -27.910156 7.796875 -28.609375 C 9.484375 -29.316406 11.441406 -29.671875 13.671875 -29.671875 C 16.296875 -29.671875 18.46875 -29.289062 20.1875 -28.53125 C 21.914062 -27.78125 23.265625 -26.769531 24.234375 -25.5 L 20.328125 -21.28125 L 19.796875 -21.28125 C 18.992188 -22.195312 18.082031 -22.863281 17.0625 -23.28125 C 16.050781 -23.707031 14.921875 -23.921875 13.671875 -23.921875 C 10.785156 -23.921875 9.34375 -23.023438 9.34375 -21.234375 C 9.34375 -20.472656 9.609375 -19.851562 10.140625 -19.375 C 10.679688 -18.90625 11.628906 -18.519531 12.984375 -18.21875 L 16.578125 -17.421875 C 19.535156 -16.796875 21.695312 -15.78125 23.0625 -14.375 C 24.425781 -12.976562 25.109375 -11.097656 25.109375 -8.734375 C 25.109375 -6.890625 24.648438 -5.265625 23.734375 -3.859375 C 22.816406 -2.453125 21.492188 -1.363281 19.765625 -0.59375 C 18.046875 0.164062 16 0.546875 13.625 0.546875 Z M 13.625 0.546875 "/></g></g></g><g fill="#002f6d" fill-opacity="1"><g transform="translate(266.442871, 100.860245)"><g><path d="M 28.78125 -12.90625 L 10.0625 -12.90625 C 10.269531 -10.375 10.988281 -8.53125 12.21875 -7.375 C 13.457031 -6.226562 15.140625 -5.65625 17.265625 -5.65625 C 18.941406 -5.65625 20.296875 -5.96875 21.328125 -6.59375 C 22.367188 -7.21875 23.207031 -8.160156 23.84375 -9.421875 L 24.40625 -9.421875 L 29.25 -6.3125 C 28.300781 -4.269531 26.867188 -2.613281 24.953125 -1.34375 C 23.035156 -0.0820312 20.472656 0.546875 17.265625 0.546875 C 14.253906 0.546875 11.648438 -0.0195312 9.453125 -1.15625 C 7.265625 -2.300781 5.578125 -4.003906 4.390625 -6.265625 C 3.203125 -8.535156 2.609375 -11.296875 2.609375 -14.546875 C 2.609375 -17.859375 3.234375 -20.648438 4.484375 -22.921875 C 5.734375 -25.191406 7.421875 -26.882812 9.546875 -28 C 11.679688 -29.113281 14.078125 -29.671875 16.734375 -29.671875 C 20.859375 -29.671875 24.015625 -28.578125 26.203125 -26.390625 C 28.398438 -24.210938 29.5 -21.015625 29.5 -16.796875 C 29.5 -15.265625 29.445312 -14.078125 29.34375 -13.234375 Z M 22.5 -17.640625 C 22.425781 -19.859375 21.910156 -21.472656 20.953125 -22.484375 C 19.992188 -23.492188 18.585938 -24 16.734375 -24 C 13.046875 -24 10.875 -21.878906 10.21875 -17.640625 Z M 22.5 -17.640625 "/></g></g></g><g fill="#002f6d" fill-opacity="1"><g transform="translate(184.306398, 123.491458)"><g><path d="M 7.3125 -6.84375 C 7.3125 -6.070312 7.144531 -5.453125 6.8125 -4.984375 C 6.488281 -4.523438 6.003906 -4.210938 5.359375 -4.046875 L 7.71875 0 L 5.515625 0 L 3.25 -3.890625 L 2.734375 -3.890625 L 2.734375 0 L 0.8125 0 L 0.8125 -9.5625 L 4.0625 -9.5625 C 5.132812 -9.5625 5.941406 -9.320312 6.484375 -8.84375 C 7.035156 -8.363281 7.3125 -7.695312 7.3125 -6.84375 Z M 2.734375 -7.9375 L 2.734375 -5.515625 L 4.0625 -5.515625 C 4.507812 -5.515625 4.84375 -5.601562 5.0625 -5.78125 C 5.28125 -5.957031 5.390625 -6.289062 5.390625 -6.78125 C 5.390625 -7.132812 5.28125 -7.414062 5.0625 -7.625 C 4.84375 -7.832031 4.507812 -7.9375 4.0625 -7.9375 Z M 2.734375 -7.9375 "/></g></g></g><g fill="#002f6d" fill-opacity="1"><g transform="translate(194.947594, 123.491458)"><g><path d="M 2.734375 -3.96875 L 2.734375 -1.625 L 7.15625 -1.625 L 7.15625 0 L 0.8125 0 L 0.8125 -9.5625 L 7.015625 -9.5625 L 7.015625 -7.9375 L 2.734375 -7.9375 L 2.734375 -5.59375 L 6.8125 -5.59375 L 6.8125 -3.96875 Z M 2.734375 -3.96875 "/></g></g></g><g fill="#002f6d" fill-opacity="1"><g transform="translate(205.329302, 123.491458)"><g><path d="M 6.453125 -2.0625 L 3.046875 -2.0625 L 2.3125 0 L 0.234375 0 L 3.734375 -9.5625 L 5.78125 -9.5625 L 9.265625 0 L 7.203125 0 Z M 3.65625 -3.6875 L 5.828125 -3.6875 L 4.734375 -6.78125 Z M 3.65625 -3.6875 "/></g></g></g><g fill="#002f6d" fill-opacity="1"><g transform="translate(217.51378, 123.491458)"><g><path d="M 2.734375 -1.625 L 6.625 -1.625 L 6.625 0 L 0.8125 0 L 0.8125 -9.5625 L 2.734375 -9.5625 Z M 2.734375 -1.625 "/></g></g></g><g fill="#002f6d" fill-opacity="1"><g transform="translate(227.349188, 123.491458)"><g/></g></g><g fill="#002f6d" fill-opacity="1"><g transform="translate(234.261931, 123.491458)"><g><path d="M 2.734375 -3.96875 L 2.734375 -1.625 L 7.15625 -1.625 L 7.15625 0 L 0.8125 0 L 0.8125 -9.5625 L 7.015625 -9.5625 L 7.015625 -7.9375 L 2.734375 -7.9375 L 2.734375 -5.59375 L 6.8125 -5.59375 L 6.8125 -3.96875 Z M 2.734375 -3.96875 "/></g></g></g><g fill="#002f6d" fill-opacity="1"><g transform="translate(244.64364, 123.491458)"><g><path d="M 7.640625 -2.78125 C 7.640625 -2.226562 7.546875 -1.765625 7.359375 -1.390625 C 7.179688 -1.015625 6.925781 -0.710938 6.59375 -0.484375 C 6.269531 -0.265625 5.890625 -0.101562 5.453125 0 C 5.015625 0.09375 4.550781 0.140625 4.0625 0.140625 C 3.375 0.140625 2.726562 0.0507812 2.125 -0.125 C 1.53125 -0.300781 1 -0.523438 0.53125 -0.796875 L 1.28125 -2.328125 C 1.539062 -2.171875 1.773438 -2.035156 1.984375 -1.921875 C 2.203125 -1.816406 2.414062 -1.734375 2.625 -1.671875 C 2.84375 -1.609375 3.0625 -1.5625 3.28125 -1.53125 C 3.507812 -1.5 3.765625 -1.484375 4.046875 -1.484375 C 4.535156 -1.484375 4.9375 -1.570312 5.25 -1.75 C 5.5625 -1.9375 5.71875 -2.265625 5.71875 -2.734375 C 5.71875 -2.984375 5.644531 -3.179688 5.5 -3.328125 C 5.363281 -3.484375 5.179688 -3.609375 4.953125 -3.703125 C 4.722656 -3.796875 4.457031 -3.875 4.15625 -3.9375 C 3.863281 -4.007812 3.5625 -4.082031 3.25 -4.15625 C 2.9375 -4.238281 2.628906 -4.34375 2.328125 -4.46875 C 2.035156 -4.601562 1.773438 -4.78125 1.546875 -5 C 1.316406 -5.226562 1.128906 -5.507812 0.984375 -5.84375 C 0.847656 -6.1875 0.78125 -6.613281 0.78125 -7.125 C 0.78125 -7.5625 0.863281 -7.941406 1.03125 -8.265625 C 1.207031 -8.585938 1.445312 -8.851562 1.75 -9.0625 C 2.050781 -9.28125 2.398438 -9.441406 2.796875 -9.546875 C 3.203125 -9.648438 3.640625 -9.703125 4.109375 -9.703125 C 4.796875 -9.703125 5.410156 -9.628906 5.953125 -9.484375 C 6.503906 -9.335938 6.992188 -9.15625 7.421875 -8.9375 L 6.78125 -7.421875 C 6.457031 -7.585938 6.070312 -7.738281 5.625 -7.875 C 5.175781 -8.007812 4.671875 -8.078125 4.109375 -8.078125 C 3.710938 -8.078125 3.378906 -8 3.109375 -7.84375 C 2.835938 -7.6875 2.703125 -7.445312 2.703125 -7.125 C 2.703125 -6.75 2.820312 -6.46875 3.0625 -6.28125 C 3.3125 -6.09375 3.617188 -5.945312 3.984375 -5.84375 C 4.347656 -5.738281 4.742188 -5.644531 5.171875 -5.5625 C 5.597656 -5.476562 5.992188 -5.335938 6.359375 -5.140625 C 6.722656 -4.953125 7.023438 -4.675781 7.265625 -4.3125 C 7.515625 -3.945312 7.640625 -3.4375 7.640625 -2.78125 Z M 7.640625 -2.78125 "/></g></g></g><g fill="#002f6d" fill-opacity="1"><g transform="translate(255.557983, 123.491458)"><g><path d="M 4.96875 -7.9375 L 4.96875 0 L 3.046875 0 L 3.046875 -7.9375 L 0.484375 -7.9375 L 0.484375 -9.5625 L 7.53125 -9.5625 L 7.53125 -7.9375 Z M 4.96875 -7.9375 "/></g></g></g><g fill="#002f6d" fill-opacity="1"><g transform="translate(266.26746, 123.491458)"><g><path d="M 6.453125 -2.0625 L 3.046875 -2.0625 L 2.3125 0 L 0.234375 0 L 3.734375 -9.5625 L 5.78125 -9.5625 L 9.265625 0 L 7.203125 0 Z M 3.65625 -3.6875 L 5.828125 -3.6875 L 4.734375 -6.78125 Z M 3.65625 -3.6875 "/></g></g></g><g fill="#002f6d" fill-opacity="1"><g transform="translate(278.45194, 123.491458)"><g><path d="M 4.96875 -7.9375 L 4.96875 0 L 3.046875 0 L 3.046875 -7.9375 L 0.484375 -7.9375 L 0.484375 -9.5625 L 7.53125 -9.5625 L 7.53125 -7.9375 Z M 4.96875 -7.9375 "/></g></g></g><g fill="#002f6d" fill-opacity="1"><g transform="translate(289.161417, 123.491458)"><g><path d="M 2.734375 -3.96875 L 2.734375 -1.625 L 7.15625 -1.625 L 7.15625 0 L 0.8125 0 L 0.8125 -9.5625 L 7.015625 -9.5625 L 7.015625 -7.9375 L 2.734375 -7.9375 L 2.734375 -5.59375 L 6.8125 -5.59375 L 6.8125 -3.96875 Z M 2.734375 -3.96875 "/></g></g></g></svg>